<svg width="626" height="626" viewBox="0 0 626 626" fill="none" xmlns="http://www.w3.org/2000/svg">
<rect x="0.574707" y="0.712402" width="624.575" height="624.575" fill="#5C5EED"/>
<path d="M582.343 221.031H519.539L412.69 74.8525C409.452 70.4359 405.238 66.8152 400.373 64.2685C395.507 61.7218 390.118 60.3168 384.621 60.1614C379.123 60.0061 373.663 61.1044 368.659 63.3722C363.656 65.64 359.242 69.0168 355.756 73.2435L326.851 106.542L326.401 107.056C324.726 109.146 322.598 110.835 320.176 111.995C317.754 113.155 315.099 113.758 312.41 113.758C309.72 113.758 307.066 113.155 304.643 111.995C302.221 110.835 300.093 109.146 298.418 107.056L297.968 106.542L269.063 73.2435C265.577 69.0168 261.163 65.64 256.16 63.3722C251.156 61.1044 245.696 60.0061 240.198 60.1614C234.701 60.3168 229.312 61.7218 224.447 64.2685C219.581 66.8152 215.367 70.4359 212.129 74.8525L105.281 221.031H42.476C37.7033 221.031 33.1261 222.915 29.7513 226.268C26.3764 229.621 24.4805 234.168 24.4805 238.91C24.4805 243.651 26.3764 248.199 29.7513 251.552C33.1261 254.905 37.7033 256.788 42.476 256.788H582.343C587.116 256.788 591.693 254.905 595.068 251.552C598.443 248.199 600.339 243.651 600.339 238.91C600.339 234.168 598.443 229.621 595.068 226.268C591.693 222.915 587.116 221.031 582.343 221.031ZM429.381 292.545C409.464 292.549 390.248 299.845 375.404 313.037C360.561 326.23 351.131 344.395 348.918 364.059H275.901C273.683 344.413 264.262 326.265 249.435 313.08C234.607 299.895 215.413 292.595 195.514 292.574C175.615 292.552 156.405 299.811 141.549 312.963C126.693 326.116 117.231 344.243 114.97 363.885C112.709 383.526 117.806 403.307 129.289 419.453C140.772 435.599 157.837 446.979 177.227 451.422C196.617 455.865 216.975 453.059 234.415 443.541C251.856 434.022 265.159 418.457 271.785 399.816H353.035C357.983 413.722 366.685 426.009 378.188 435.334C389.691 444.659 403.553 450.662 418.259 452.689C432.964 454.715 447.947 452.686 461.571 446.823C475.194 440.961 486.933 431.49 495.504 419.447C504.075 407.404 509.149 393.251 510.171 378.536C511.193 363.822 508.124 349.111 501.299 336.012C494.474 322.914 484.155 311.931 471.472 304.265C458.788 296.599 444.227 292.545 429.381 292.545Z" fill="white"/>
</svg>
